<?xml version="1.0" encoding="utf-8"?>
<!-- Generator: Adobe Illustrator 22.0.1, SVG Export Plug-In . SVG Version: 6.00 Build 0)  -->
<svg version="1.1" id="Слой_1" xmlns="http://www.w3.org/2000/svg" xmlns:xlink="http://www.w3.org/1999/xlink" x="0px" y="0px"
	 viewBox="0 0 26.9 35.1" style="enable-background:new 0 0 26.9 35.1;" xml:space="preserve">
<style type="text/css">
	.st0{fill:#FFC600;}
</style>
<path class="st0" d="M13.6,0l-0.1,0L0,1.5v25.4l13.5,8.3l13.4-8.2l0,0V1.5L13.6,0z M25,12.5l-11.5-7l0-0.1l-0.1,0.1l-0.1-0.1v0.1
	l-11.4,7V3.2L13.5,2L25,3.2L25,12.5L25,12.5z M13.4,7l11.5,6.9l-4.5,2.7l-7.1-4.3l0,1.5l5.9,3.6l-0.9,0.5l-5-3.1l0,1.5l3.8,2.3
	l-0.8,0.5l-3-1.8l0,1.5l1.9,1.1L13.4,21L2,14C2,14,13.4,7,13.4,7z M1.9,15.6l11.4,7l0,1.1l-7.9-4.9l0,1.5l8,4.9l0,1.1l-8-4.9l0,1.5
	l8,5l0,0l8.1-5l0-5.3l3.4-2.1v10.3l-11.5,7.1L1.9,25.7C1.9,25.7,1.9,15.6,1.9,15.6z"/>
</svg>
